solid OpenSCAD_Model
  facet normal 0.674343 -0.219107 -0.705162
    outer loop
      vertex 22.8386 -10.1684 2.5
      vertex 19.563 -4.15823 -2.5
      vertex 24.4537 -5.19779 2.5
    endloop
  endfacet
  facet normal 0.705162 0.0741156 -0.705162
    outer loop
      vertex 25 0 2.5
      vertex 20 0 -2.5
      vertex 24.4537 5.19779 2.5
    endloop
  endfacet
  facet normal 0.705162 0.0741158 -0.705162
    outer loop
      vertex 20 0 -2.5
      vertex 19.563 4.15823 -2.5
      vertex 24.4537 5.19779 2.5
    endloop
  endfacet
  facet normal 0.705162 -0.0741158 -0.705162
    outer loop
      vertex 24.4537 -5.19779 2.5
      vertex 19.563 -4.15823 -2.5
      vertex 20 0 -2.5
    endloop
  endfacet
  facet normal -0.705162 -0.0741158 -0.705162
    outer loop
      vertex -19.563 -4.15823 -2.5
      vertex -24.4537 -5.19779 2.5
      vertex -20 0 -2.5
    endloop
  endfacet
  facet normal -0.147419 0.693552 -0.705162
    outer loop
      vertex -2.09057 19.8904 -2.5
      vertex -6.18034 19.0211 -2.5
      vertex -2.61321 24.863 2.5
    endloop
  endfacet
  facet normal 0.416767 -0.57363 -0.705162
    outer loop
      vertex 12.5 -21.6506 2.5
      vertex 10 -17.3205 -2.5
      vertex 16.7283 -18.5786 2.5
    endloop
  endfacet
  facet normal 0.705162 -0.0741156 -0.705162
    outer loop
      vertex 24.4537 -5.19779 2.5
      vertex 20 0 -2.5
      vertex 25 0 2.5
    endloop
  endfacet
  facet normal -0.147419 -0.693552 -0.705162
    outer loop
      vertex -2.61321 -24.863 2.5
      vertex -6.18034 -19.0211 -2.5
      vertex -2.09057 -19.8904 -2.5
    endloop
  endfacet
  facet normal -0.674343 -0.219107 -0.705162
    outer loop
      vertex -22.8386 -10.1684 2.5
      vertex -24.4537 -5.19779 2.5
      vertex -19.563 -4.15823 -2.5
    endloop
  endfacet
  facet normal 0 -0.709046 -0.705162
    outer loop
      vertex -2.09057 -19.8904 -2.5
      vertex 2.61321 -24.863 2.5
      vertex -2.61321 -24.863 2.5
    endloop
  endfacet
  facet normal 0 -0.709046 -0.705162
    outer loop
      vertex 2.61321 -24.863 2.5
      vertex -2.09057 -19.8904 -2.5
      vertex 2.09057 -19.8904 -2.5
    endloop
  endfacet
  facet normal 0.288395 0.647746 -0.705162
    outer loop
      vertex 10 17.3205 -2.5
      vertex 7.72542 23.7764 2.5
      vertex 12.5 21.6506 2.5
    endloop
  endfacet
  facet normal -0.705162 0.0741158 -0.705162
    outer loop
      vertex -20 0 -2.5
      vertex -24.4537 5.19779 2.5
      vertex -19.563 4.15823 -2.5
    endloop
  endfacet
  facet normal -0 0 1
    outer loop
      vertex 22.6722 3.11868 2.5
      vertex 25 0 2.5
      vertex 24.4537 5.19779 2.5
    endloop
  endfacet
  facet normal 0 0 1
    outer loop
      vertex 22.6722 -3.11868 2.5
      vertex 25 0 2.5
      vertex 23 0 2.5
    endloop
  endfacet
  facet normal -0 0 1
    outer loop
      vertex 21.5284 7.76434 2.5
      vertex 24.4537 5.19779 2.5
      vertex 22.8386 10.1684 2.5
    endloop
  endfacet
  facet normal 0 0 1
    outer loop
      vertex 25 0 2.5
      vertex 22.6722 3.11868 2.5
      vertex 23 0 2.5
    endloop
  endfacet
  facet normal 0 0 1
    outer loop
      vertex 24.4537 5.19779 2.5
      vertex 22.4974 4.78197 2.5
      vertex 22.6722 3.11868 2.5
    endloop
  endfacet
  facet normal 0 0 1
    outer loop
      vertex 24.4537 5.19779 2.5
      vertex 21.5284 7.76434 2.5
      vertex 22.4974 4.78197 2.5
    endloop
  endfacet
  facet normal 0 0 1
    outer loop
      vertex 22.8386 10.1684 2.5
      vertex 21.0115 9.35494 2.5
      vertex 21.5284 7.76434 2.5
    endloop
  endfacet
  facet normal -0 0 1
    outer loop
      vertex 20.1753 10.8033 2.5
      vertex 22.8386 10.1684 2.5
      vertex 20.2254 14.6946 2.5
    endloop
  endfacet
  facet normal 0 0 1
    outer loop
      vertex 22.8386 10.1684 2.5
      vertex 20.1753 10.8033 2.5
      vertex 21.0115 9.35494 2.5
    endloop
  endfacet
  facet normal 0 0 1
    outer loop
      vertex 20.2254 14.6946 2.5
      vertex 18.6074 13.5191 2.5
      vertex 20.1753 10.8033 2.5
    endloop
  endfacet
  facet normal -0 0 1
    outer loop
      vertex 16.5091 15.8495 2.5
      vertex 20.2254 14.6946 2.5
      vertex 16.7283 18.5786 2.5
    endloop
  endfacet
  facet normal 0 0 1
    outer loop
      vertex 20.2254 14.6946 2.5
      vertex 16.5091 15.8495 2.5
      vertex 18.6074 13.5191 2.5
    endloop
  endfacet
  facet normal 0 0 1
    outer loop
      vertex 16.7283 18.5786 2.5
      vertex 15.39 17.0923 2.5
      vertex 16.5091 15.8495 2.5
    endloop
  endfacet
  facet normal 0 0 1
    outer loop
      vertex 16.7283 18.5786 2.5
      vertex 14.037 18.0754 2.5
      vertex 15.39 17.0923 2.5
    endloop
  endfacet
  facet normal 0 0 1
    outer loop
      vertex 12.5 21.6506 2.5
      vertex 14.037 18.0754 2.5
      vertex 16.7283 18.5786 2.5
    endloop
  endfacet
  facet normal 0 0 1
    outer loop
      vertex 12.5 21.6506 2.5
      vertex 11.5 19.9186 2.5
      vertex 14.037 18.0754 2.5
    endloop
  endfacet
  facet normal 0 0 1
    outer loop
      vertex 12.5 21.6506 2.5
      vertex 8.63525 21.194 2.5
      vertex 11.5 19.9186 2.5
    endloop
  endfacet
  facet normal 0 0 1
    outer loop
      vertex 7.72542 23.7764 2.5
      vertex 8.63525 21.194 2.5
      vertex 12.5 21.6506 2.5
    endloop
  endfacet
  facet normal 0 0 1
    outer loop
      vertex 7.72542 23.7764 2.5
      vertex 7.10739 21.8743 2.5
      vertex 8.63525 21.194 2.5
    endloop
  endfacet
  facet normal 0 0 1
    outer loop
      vertex 7.72542 23.7764 2.5
      vertex 4.04006 22.5263 2.5
      vertex 7.10739 21.8743 2.5
    endloop
  endfacet
  facet normal 0 0 1
    outer loop
      vertex 2.61321 24.863 2.5
      vertex 4.04006 22.5263 2.5
      vertex 7.72542 23.7764 2.5
    endloop
  endfacet
  facet normal 0 0 1
    outer loop
      vertex 2.61321 24.863 2.5
      vertex 2.40415 22.874 2.5
      vertex 4.04006 22.5263 2.5
    endloop
  endfacet
  facet normal 0 0 1
    outer loop
      vertex 2.61321 24.863 2.5
      vertex -2.40415 22.874 2.5
      vertex 2.40415 22.874 2.5
    endloop
  endfacet
  facet normal -0 0 1
    outer loop
      vertex -2.61321 24.863 2.5
      vertex -2.40415 22.874 2.5
      vertex 2.61321 24.863 2.5
    endloop
  endfacet
  facet normal 0 0 1
    outer loop
      vertex -2.61321 24.863 2.5
      vertex -4.04006 22.5263 2.5
      vertex -2.40415 22.874 2.5
    endloop
  endfacet
  facet normal -0 0 1
    outer loop
      vertex -7.72542 23.7764 2.5
      vertex -4.04006 22.5263 2.5
      vertex -2.61321 24.863 2.5
    endloop
  endfacet
  facet normal 0 0 1
    outer loop
      vertex -4.04006 22.5263 2.5
      vertex -7.72542 23.7764 2.5
      vertex -7.10739 21.8743 2.5
    endloop
  endfacet
  facet normal 0 0 1
    outer loop
      vertex -7.72542 23.7764 2.5
      vertex -8.63525 21.194 2.5
      vertex -7.10739 21.8743 2.5
    endloop
  endfacet
  facet normal -0 0 1
    outer loop
      vertex -12.5 21.6506 2.5
      vertex -8.63525 21.194 2.5
      vertex -7.72542 23.7764 2.5
    endloop
  endfacet
  facet normal 0 0 1
    outer loop
      vertex -8.63525 21.194 2.5
      vertex -12.5 21.6506 2.5
      vertex -11.5 19.9186 2.5
    endloop
  endfacet
  facet normal 0 0 1
    outer loop
      vertex -12.5 21.6506 2.5
      vertex -14.037 18.0754 2.5
      vertex -11.5 19.9186 2.5
    endloop
  endfacet
  facet normal -0 0 1
    outer loop
      vertex -16.7283 18.5786 2.5
      vertex -14.037 18.0754 2.5
      vertex -12.5 21.6506 2.5
    endloop
  endfacet
  facet normal 0 0 1
    outer loop
      vertex -14.037 18.0754 2.5
      vertex -16.7283 18.5786 2.5
      vertex -15.39 17.0923 2.5
    endloop
  endfacet
  facet normal 0 0 1
    outer loop
      vertex -15.39 17.0923 2.5
      vertex -16.7283 18.5786 2.5
      vertex -16.5091 15.8495 2.5
    endloop
  endfacet
  facet normal 0 0 1
    outer loop
      vertex -20.2254 14.6946 2.5
      vertex -16.5091 15.8495 2.5
      vertex -16.7283 18.5786 2.5
    endloop
  endfacet
  facet normal 0 0 1
    outer loop
      vertex -16.5091 15.8495 2.5
      vertex -20.2254 14.6946 2.5
      vertex -18.6074 13.5191 2.5
    endloop
  endfacet
  facet normal 0 0 1
    outer loop
      vertex -18.6074 13.5191 2.5
      vertex -20.2254 14.6946 2.5
      vertex -20.1753 10.8033 2.5
    endloop
  endfacet
  facet normal 0 0 1
    outer loop
      vertex -22.8386 10.1684 2.5
      vertex -20.1753 10.8033 2.5
      vertex -20.2254 14.6946 2.5
    endloop
  endfacet
  facet normal 0 0 1
    outer loop
      vertex -20.1753 10.8033 2.5
      vertex -22.8386 10.1684 2.5
      vertex -21.0115 9.35494 2.5
    endloop
  endfacet
  facet normal 0 0 1
    outer loop
      vertex -21.0115 9.35494 2.5
      vertex -22.8386 10.1684 2.5
      vertex -21.5284 7.76434 2.5
    endloop
  endfacet
  facet normal 0 0 1
    outer loop
      vertex -24.4537 5.19779 2.5
      vertex -21.5284 7.76434 2.5
      vertex -22.8386 10.1684 2.5
    endloop
  endfacet
  facet normal 0 0 1
    outer loop
      vertex -21.5284 7.76434 2.5
      vertex -24.4537 5.19779 2.5
      vertex -22.4974 4.78197 2.5
    endloop
  endfacet
  facet normal 0 0 1
    outer loop
      vertex -22.4974 4.78197 2.5
      vertex -24.4537 5.19779 2.5
      vertex -22.6722 3.11868 2.5
    endloop
  endfacet
  facet normal 0 0 1
    outer loop
      vertex -25 0 2.5
      vertex -22.6722 3.11868 2.5
      vertex -24.4537 5.19779 2.5
    endloop
  endfacet
  facet normal 0 0 1
    outer loop
      vertex 25 0 2.5
      vertex 22.6722 -3.11868 2.5
      vertex 24.4537 -5.19779 2.5
    endloop
  endfacet
  facet normal -0 0 1
    outer loop
      vertex 22.4974 -4.78197 2.5
      vertex 24.4537 -5.19779 2.5
      vertex 22.6722 -3.11868 2.5
    endloop
  endfacet
  facet normal 0 0 1
    outer loop
      vertex 21.5284 -7.76434 2.5
      vertex 24.4537 -5.19779 2.5
      vertex 22.4974 -4.78197 2.5
    endloop
  endfacet
  facet normal 0 0 1
    outer loop
      vertex 24.4537 -5.19779 2.5
      vertex 21.5284 -7.76434 2.5
      vertex 22.8386 -10.1684 2.5
    endloop
  endfacet
  facet normal -0 0 1
    outer loop
      vertex 21.0115 -9.35494 2.5
      vertex 22.8386 -10.1684 2.5
      vertex 21.5284 -7.76434 2.5
    endloop
  endfacet
  facet normal 0 0 1
    outer loop
      vertex 20.1753 -10.8033 2.5
      vertex 22.8386 -10.1684 2.5
      vertex 21.0115 -9.35494 2.5
    endloop
  endfacet
  facet normal 0 0 1
    outer loop
      vertex 22.8386 -10.1684 2.5
      vertex 20.1753 -10.8033 2.5
      vertex 20.2254 -14.6946 2.5
    endloop
  endfacet
  facet normal -0 0 1
    outer loop
      vertex 18.6074 -13.5191 2.5
      vertex 20.2254 -14.6946 2.5
      vertex 20.1753 -10.8033 2.5
    endloop
  endfacet
  facet normal 0 0 1
    outer loop
      vertex 16.5091 -15.8495 2.5
      vertex 20.2254 -14.6946 2.5
      vertex 18.6074 -13.5191 2.5
    endloop
  endfacet
  facet normal 0 0 1
    outer loop
      vertex 20.2254 -14.6946 2.5
      vertex 16.5091 -15.8495 2.5
      vertex 16.7283 -18.5786 2.5
    endloop
  endfacet
  facet normal -0 0 1
    outer loop
      vertex 15.39 -17.0923 2.5
      vertex 16.7283 -18.5786 2.5
      vertex 16.5091 -15.8495 2.5
    endloop
  endfacet
  facet normal -0 0 1
    outer loop
      vertex 14.037 -18.0754 2.5
      vertex 16.7283 -18.5786 2.5
      vertex 15.39 -17.0923 2.5
    endloop
  endfacet
  facet normal 0 0 1
    outer loop
      vertex 14.037 -18.0754 2.5
      vertex 12.5 -21.6506 2.5
      vertex 16.7283 -18.5786 2.5
    endloop
  endfacet
  facet normal -0 0 1
    outer loop
      vertex 11.5 -19.9186 2.5
      vertex 12.5 -21.6506 2.5
      vertex 14.037 -18.0754 2.5
    endloop
  endfacet
  facet normal -0 0 1
    outer loop
      vertex 8.63525 -21.194 2.5
      vertex 12.5 -21.6506 2.5
      vertex 11.5 -19.9186 2.5
    endloop
  endfacet
  facet normal 0 0 1
    outer loop
      vertex 8.63525 -21.194 2.5
      vertex 7.72542 -23.7764 2.5
      vertex 12.5 -21.6506 2.5
    endloop
  endfacet
  facet normal -0 0 1
    outer loop
      vertex 7.10739 -21.8743 2.5
      vertex 7.72542 -23.7764 2.5
      vertex 8.63525 -21.194 2.5
    endloop
  endfacet
  facet normal -0 0 1
    outer loop
      vertex 4.04006 -22.5263 2.5
      vertex 7.72542 -23.7764 2.5
      vertex 7.10739 -21.8743 2.5
    endloop
  endfacet
  facet normal 0 0 1
    outer loop
      vertex 4.04006 -22.5263 2.5
      vertex 2.61321 -24.863 2.5
      vertex 7.72542 -23.7764 2.5
    endloop
  endfacet
  facet normal -0 0 1
    outer loop
      vertex 2.40415 -22.874 2.5
      vertex 2.61321 -24.863 2.5
      vertex 4.04006 -22.5263 2.5
    endloop
  endfacet
  facet normal -0 0 1
    outer loop
      vertex -2.40415 -22.874 2.5
      vertex 2.61321 -24.863 2.5
      vertex 2.40415 -22.874 2.5
    endloop
  endfacet
  facet normal 0 0 1
    outer loop
      vertex -2.40415 -22.874 2.5
      vertex -2.61321 -24.863 2.5
      vertex 2.61321 -24.863 2.5
    endloop
  endfacet
  facet normal 0 0 1
    outer loop
      vertex -4.04006 -22.5263 2.5
      vertex -2.61321 -24.863 2.5
      vertex -2.40415 -22.874 2.5
    endloop
  endfacet
  facet normal 0 0 1
    outer loop
      vertex -7.72542 -23.7764 2.5
      vertex -4.04006 -22.5263 2.5
      vertex -7.10739 -21.8743 2.5
    endloop
  endfacet
  facet normal 0 0 1
    outer loop
      vertex -4.04006 -22.5263 2.5
      vertex -7.72542 -23.7764 2.5
      vertex -2.61321 -24.863 2.5
    endloop
  endfacet
  facet normal 0 0 1
    outer loop
      vertex -8.63525 -21.194 2.5
      vertex -7.72542 -23.7764 2.5
      vertex -7.10739 -21.8743 2.5
    endloop
  endfacet
  facet normal 0 0 1
    outer loop
      vertex -12.5 -21.6506 2.5
      vertex -8.63525 -21.194 2.5
      vertex -11.5 -19.9186 2.5
    endloop
  endfacet
  facet normal 0 0 1
    outer loop
      vertex -8.63525 -21.194 2.5
      vertex -12.5 -21.6506 2.5
      vertex -7.72542 -23.7764 2.5
    endloop
  endfacet
  facet normal 0 0 1
    outer loop
      vertex -14.037 -18.0754 2.5
      vertex -12.5 -21.6506 2.5
      vertex -11.5 -19.9186 2.5
    endloop
  endfacet
  facet normal 0 0 1
    outer loop
      vertex -16.7283 -18.5786 2.5
      vertex -14.037 -18.0754 2.5
      vertex -15.39 -17.0923 2.5
    endloop
  endfacet
  facet normal 0 0 1
    outer loop
      vertex -16.7283 -18.5786 2.5
      vertex -15.39 -17.0923 2.5
      vertex -16.5091 -15.8495 2.5
    endloop
  endfacet
  facet normal 0 0 1
    outer loop
      vertex -14.037 -18.0754 2.5
      vertex -16.7283 -18.5786 2.5
      vertex -12.5 -21.6506 2.5
    endloop
  endfacet
  facet normal -0 0 1
    outer loop
      vertex -20.2254 -14.6946 2.5
      vertex -16.5091 -15.8495 2.5
      vertex -18.6074 -13.5191 2.5
    endloop
  endfacet
  facet normal 0 0 1
    outer loop
      vertex -20.2254 -14.6946 2.5
      vertex -18.6074 -13.5191 2.5
      vertex -20.1753 -10.8033 2.5
    endloop
  endfacet
  facet normal 0 0 1
    outer loop
      vertex -16.5091 -15.8495 2.5
      vertex -20.2254 -14.6946 2.5
      vertex -16.7283 -18.5786 2.5
    endloop
  endfacet
  facet normal -0 0 1
    outer loop
      vertex -22.8386 -10.1684 2.5
      vertex -20.1753 -10.8033 2.5
      vertex -21.0115 -9.35494 2.5
    endloop
  endfacet
  facet normal 0 0 1
    outer loop
      vertex -22.8386 -10.1684 2.5
      vertex -21.0115 -9.35494 2.5
      vertex -21.5284 -7.76434 2.5
    endloop
  endfacet
  facet normal -0 0 1
    outer loop
      vertex -24.4537 -5.19779 2.5
      vertex -21.5284 -7.76434 2.5
      vertex -22.4974 -4.78197 2.5
    endloop
  endfacet
  facet normal 0 0 1
    outer loop
      vertex -20.1753 -10.8033 2.5
      vertex -22.8386 -10.1684 2.5
      vertex -20.2254 -14.6946 2.5
    endloop
  endfacet
  facet normal 0 0 1
    outer loop
      vertex -24.4537 -5.19779 2.5
      vertex -22.4974 -4.78197 2.5
      vertex -22.6722 -3.11868 2.5
    endloop
  endfacet
  facet normal -0 0 1
    outer loop
      vertex -25 0 2.5
      vertex -22.6722 -3.11868 2.5
      vertex -23 0 2.5
    endloop
  endfacet
  facet normal 0 0 1
    outer loop
      vertex -22.6722 3.11868 2.5
      vertex -25 0 2.5
      vertex -23 0 2.5
    endloop
  endfacet
  facet normal 0 0 1
    outer loop
      vertex -21.5284 -7.76434 2.5
      vertex -24.4537 -5.19779 2.5
      vertex -22.8386 -10.1684 2.5
    endloop
  endfacet
  facet normal 0 0 1
    outer loop
      vertex -22.6722 -3.11868 2.5
      vertex -25 0 2.5
      vertex -24.4537 -5.19779 2.5
    endloop
  endfacet
  facet normal 0.674343 -0.219107 -0.705162
    outer loop
      vertex 22.8386 -10.1684 2.5
      vertex 18.2709 -8.13473 -2.5
      vertex 19.563 -4.15823 -2.5
    endloop
  endfacet
  facet normal 0.614052 -0.354523 -0.705162
    outer loop
      vertex 22.8386 -10.1684 2.5
      vertex 16.1803 -11.7557 -2.5
      vertex 18.2709 -8.13473 -2.5
    endloop
  endfacet
  facet normal 0.614052 -0.354523 -0.705162
    outer loop
      vertex 20.2254 -14.6946 2.5
      vertex 16.1803 -11.7557 -2.5
      vertex 22.8386 -10.1684 2.5
    endloop
  endfacet
  facet normal 0.416767 -0.57363 -0.705162
    outer loop
      vertex 16.7283 -18.5786 2.5
      vertex 10 -17.3205 -2.5
      vertex 13.3826 -14.8629 -2.5
    endloop
  endfacet
  facet normal 0.147419 -0.693552 -0.705162
    outer loop
      vertex 7.72542 -23.7764 2.5
      vertex 2.61321 -24.863 2.5
      vertex 6.18034 -19.0211 -2.5
    endloop
  endfacet
  facet normal 0.526924 -0.474445 -0.705162
    outer loop
      vertex 16.7283 -18.5786 2.5
      vertex 13.3826 -14.8629 -2.5
      vertex 16.1803 -11.7557 -2.5
    endloop
  endfacet
  facet normal 0.526924 -0.474445 -0.705162
    outer loop
      vertex 16.7283 -18.5786 2.5
      vertex 16.1803 -11.7557 -2.5
      vertex 20.2254 -14.6946 2.5
    endloop
  endfacet
  facet normal -0.674343 -0.219107 -0.705162
    outer loop
      vertex -18.2709 -8.13473 -2.5
      vertex -22.8386 -10.1684 2.5
      vertex -19.563 -4.15823 -2.5
    endloop
  endfacet
  facet normal -0.526924 -0.474445 -0.705162
    outer loop
      vertex -16.7283 -18.5786 2.5
      vertex -20.2254 -14.6946 2.5
      vertex -16.1803 -11.7557 -2.5
    endloop
  endfacet
  facet normal -0.288395 0.647746 -0.705162
    outer loop
      vertex -10 17.3205 -2.5
      vertex -12.5 21.6506 2.5
      vertex -7.72542 23.7764 2.5
    endloop
  endfacet
  facet normal -0.674343 0.219107 -0.705162
    outer loop
      vertex -19.563 4.15823 -2.5
      vertex -24.4537 5.19779 2.5
      vertex -22.8386 10.1684 2.5
    endloop
  endfacet
  facet normal -0.674343 0.219107 -0.705162
    outer loop
      vertex -19.563 4.15823 -2.5
      vertex -22.8386 10.1684 2.5
      vertex -18.2709 8.13473 -2.5
    endloop
  endfacet
  facet normal -0.705162 0.0741156 -0.705162
    outer loop
      vertex -20 0 -2.5
      vertex -25 0 2.5
      vertex -24.4537 5.19779 2.5
    endloop
  endfacet
  facet normal -0.705162 -0.0741156 -0.705162
    outer loop
      vertex -24.4537 -5.19779 2.5
      vertex -25 0 2.5
      vertex -20 0 -2.5
    endloop
  endfacet
  facet normal 0.147419 -0.693552 -0.705162
    outer loop
      vertex 2.61321 -24.863 2.5
      vertex 2.09057 -19.8904 -2.5
      vertex 6.18034 -19.0211 -2.5
    endloop
  endfacet
  facet normal 0.288395 -0.647746 -0.705162
    outer loop
      vertex 7.72542 -23.7764 2.5
      vertex 6.18034 -19.0211 -2.5
      vertex 10 -17.3205 -2.5
    endloop
  endfacet
  facet normal 0.288395 -0.647746 -0.705162
    outer loop
      vertex 12.5 -21.6506 2.5
      vertex 7.72542 -23.7764 2.5
      vertex 10 -17.3205 -2.5
    endloop
  endfacet
  facet normal 0 0 -1
    outer loop
      vertex 3.75 0 -2.5
      vertex 20 0 -2.5
      vertex 19.563 -4.15823 -2.5
    endloop
  endfacet
  facet normal 0 0 -1
    outer loop
      vertex 3.24759 -1.875 -2.5
      vertex 19.563 -4.15823 -2.5
      vertex 18.2709 -8.13473 -2.5
    endloop
  endfacet
  facet normal 0 0 -1
    outer loop
      vertex 20 0 -2.5
      vertex 3.75 0 -2.5
      vertex 19.563 4.15823 -2.5
    endloop
  endfacet
  facet normal 0 0 -1
    outer loop
      vertex 3.24759 -1.875 -2.5
      vertex 18.2709 -8.13473 -2.5
      vertex 16.1803 -11.7557 -2.5
    endloop
  endfacet
  facet normal 0 0 -1
    outer loop
      vertex 3.24759 1.875 -2.5
      vertex 19.563 4.15823 -2.5
      vertex 3.75 0 -2.5
    endloop
  endfacet
  facet normal 0 0 -1
    outer loop
      vertex 3.24759 -1.875 -2.5
      vertex 16.1803 -11.7557 -2.5
      vertex 13.3826 -14.8629 -2.5
    endloop
  endfacet
  facet normal -0 0 -1
    outer loop
      vertex 19.563 4.15823 -2.5
      vertex 3.24759 1.875 -2.5
      vertex 18.2709 8.13473 -2.5
    endloop
  endfacet
  facet normal 0 0 -1
    outer loop
      vertex 1.875 -3.24759 -2.5
      vertex 13.3826 -14.8629 -2.5
      vertex 10 -17.3205 -2.5
    endloop
  endfacet
  facet normal -0 0 -1
    outer loop
      vertex 18.2709 8.13473 -2.5
      vertex 3.24759 1.875 -2.5
      vertex 16.1803 11.7557 -2.5
    endloop
  endfacet
  facet normal 0 0 -1
    outer loop
      vertex 1.875 -3.24759 -2.5
      vertex 10 -17.3205 -2.5
      vertex 6.18034 -19.0211 -2.5
    endloop
  endfacet
  facet normal -0 0 -1
    outer loop
      vertex 16.1803 11.7557 -2.5
      vertex 3.24759 1.875 -2.5
      vertex 13.3826 14.8629 -2.5
    endloop
  endfacet
  facet normal 0 0 -1
    outer loop
      vertex 1.875 3.24759 -2.5
      vertex 13.3826 14.8629 -2.5
      vertex 3.24759 1.875 -2.5
    endloop
  endfacet
  facet normal 0 0 -1
    outer loop
      vertex 19.563 -4.15823 -2.5
      vertex 3.24759 -1.875 -2.5
      vertex 3.75 0 -2.5
    endloop
  endfacet
  facet normal 0 0 -1
    outer loop
      vertex 0 -3.75 -2.5
      vertex 6.18034 -19.0211 -2.5
      vertex 2.09057 -19.8904 -2.5
    endloop
  endfacet
  facet normal 0 0 -1
    outer loop
      vertex 13.3826 -14.8629 -2.5
      vertex 1.875 -3.24759 -2.5
      vertex 3.24759 -1.875 -2.5
    endloop
  endfacet
  facet normal 0 0 -1
    outer loop
      vertex 6.18034 -19.0211 -2.5
      vertex 0 -3.75 -2.5
      vertex 1.875 -3.24759 -2.5
    endloop
  endfacet
  facet normal 0 0 -1
    outer loop
      vertex -2.09057 -19.8904 -2.5
      vertex 0 -3.75 -2.5
      vertex 2.09057 -19.8904 -2.5
    endloop
  endfacet
  facet normal 0 0 -1
    outer loop
      vertex -6.18034 -19.0211 -2.5
      vertex 0 -3.75 -2.5
      vertex -2.09057 -19.8904 -2.5
    endloop
  endfacet
  facet normal -0 0 -1
    outer loop
      vertex 0 -3.75 -2.5
      vertex -6.18034 -19.0211 -2.5
      vertex -1.875 -3.24759 -2.5
    endloop
  endfacet
  facet normal 0 0 -1
    outer loop
      vertex -10 -17.3205 -2.5
      vertex -1.875 -3.24759 -2.5
      vertex -6.18034 -19.0211 -2.5
    endloop
  endfacet
  facet normal 0 0 -1
    outer loop
      vertex -13.3826 -14.8629 -2.5
      vertex -1.875 -3.24759 -2.5
      vertex -10 -17.3205 -2.5
    endloop
  endfacet
  facet normal -0 0 -1
    outer loop
      vertex 13.3826 14.8629 -2.5
      vertex 1.875 3.24759 -2.5
      vertex 10 17.3205 -2.5
    endloop
  endfacet
  facet normal -0 0 -1
    outer loop
      vertex 10 17.3205 -2.5
      vertex 1.875 3.24759 -2.5
      vertex 6.18034 19.0211 -2.5
    endloop
  endfacet
  facet normal 0 0 -1
    outer loop
      vertex 0 3.75 -2.5
      vertex 6.18034 19.0211 -2.5
      vertex 1.875 3.24759 -2.5
    endloop
  endfacet
  facet normal -0 0 -1
    outer loop
      vertex 6.18034 19.0211 -2.5
      vertex 0 3.75 -2.5
      vertex 2.09057 19.8904 -2.5
    endloop
  endfacet
  facet normal 0 0 -1
    outer loop
      vertex -6.18034 19.0211 -2.5
      vertex 0 3.75 -2.5
      vertex -1.875 3.24759 -2.5
    endloop
  endfacet
  facet normal 0 0 -1
    outer loop
      vertex 0 3.75 -2.5
      vertex -2.09057 19.8904 -2.5
      vertex 2.09057 19.8904 -2.5
    endloop
  endfacet
  facet normal 0 0 -1
    outer loop
      vertex -13.3826 14.8629 -2.5
      vertex -1.875 3.24759 -2.5
      vertex -3.24759 1.875 -2.5
    endloop
  endfacet
  facet normal 0 0 -1
    outer loop
      vertex -19.563 4.15823 -2.5
      vertex -3.24759 1.875 -2.5
      vertex -3.75 0 -2.5
    endloop
  endfacet
  facet normal -0 0 -1
    outer loop
      vertex -1.875 -3.24759 -2.5
      vertex -13.3826 -14.8629 -2.5
      vertex -3.24759 -1.875 -2.5
    endloop
  endfacet
  facet normal 0 0 -1
    outer loop
      vertex 0 3.75 -2.5
      vertex -6.18034 19.0211 -2.5
      vertex -2.09057 19.8904 -2.5
    endloop
  endfacet
  facet normal 0 0 -1
    outer loop
      vertex -1.875 3.24759 -2.5
      vertex -10 17.3205 -2.5
      vertex -6.18034 19.0211 -2.5
    endloop
  endfacet
  facet normal 0 0 -1
    outer loop
      vertex -16.1803 -11.7557 -2.5
      vertex -3.24759 -1.875 -2.5
      vertex -13.3826 -14.8629 -2.5
    endloop
  endfacet
  facet normal 0 0 -1
    outer loop
      vertex -18.2709 -8.13473 -2.5
      vertex -3.24759 -1.875 -2.5
      vertex -16.1803 -11.7557 -2.5
    endloop
  endfacet
  facet normal 0 0 -1
    outer loop
      vertex -1.875 3.24759 -2.5
      vertex -13.3826 14.8629 -2.5
      vertex -10 17.3205 -2.5
    endloop
  endfacet
  facet normal 0 0 -1
    outer loop
      vertex -19.563 -4.15823 -2.5
      vertex -3.24759 -1.875 -2.5
      vertex -18.2709 -8.13473 -2.5
    endloop
  endfacet
  facet normal 0 0 -1
    outer loop
      vertex -3.24759 1.875 -2.5
      vertex -16.1803 11.7557 -2.5
      vertex -13.3826 14.8629 -2.5
    endloop
  endfacet
  facet normal -0 0 -1
    outer loop
      vertex -3.24759 -1.875 -2.5
      vertex -19.563 -4.15823 -2.5
      vertex -3.75 0 -2.5
    endloop
  endfacet
  facet normal 0 0 -1
    outer loop
      vertex -3.24759 1.875 -2.5
      vertex -18.2709 8.13473 -2.5
      vertex -16.1803 11.7557 -2.5
    endloop
  endfacet
  facet normal 0 0 -1
    outer loop
      vertex -20 0 -2.5
      vertex -3.75 0 -2.5
      vertex -19.563 -4.15823 -2.5
    endloop
  endfacet
  facet normal 0 0 -1
    outer loop
      vertex -3.24759 1.875 -2.5
      vertex -19.563 4.15823 -2.5
      vertex -18.2709 8.13473 -2.5
    endloop
  endfacet
  facet normal 0 0 -1
    outer loop
      vertex -3.75 0 -2.5
      vertex -20 0 -2.5
      vertex -19.563 4.15823 -2.5
    endloop
  endfacet
  facet normal -0.614052 -0.354523 -0.705162
    outer loop
      vertex -16.1803 -11.7557 -2.5
      vertex -22.8386 -10.1684 2.5
      vertex -18.2709 -8.13473 -2.5
    endloop
  endfacet
  facet normal -0.288395 -0.647746 -0.705162
    outer loop
      vertex -7.72542 -23.7764 2.5
      vertex -12.5 -21.6506 2.5
      vertex -10 -17.3205 -2.5
    endloop
  endfacet
  facet normal -0.147419 -0.693552 -0.705162
    outer loop
      vertex -2.61321 -24.863 2.5
      vertex -7.72542 -23.7764 2.5
      vertex -6.18034 -19.0211 -2.5
    endloop
  endfacet
  facet normal -0.526924 -0.474445 -0.705162
    outer loop
      vertex -13.3826 -14.8629 -2.5
      vertex -16.7283 -18.5786 2.5
      vertex -16.1803 -11.7557 -2.5
    endloop
  endfacet
  facet normal -0.614052 -0.354523 -0.705162
    outer loop
      vertex -20.2254 -14.6946 2.5
      vertex -22.8386 -10.1684 2.5
      vertex -16.1803 -11.7557 -2.5
    endloop
  endfacet
  facet normal 0 0.709046 -0.705162
    outer loop
      vertex 2.09057 19.8904 -2.5
      vertex -2.61321 24.863 2.5
      vertex 2.61321 24.863 2.5
    endloop
  endfacet
  facet normal 0 0.709046 -0.705162
    outer loop
      vertex -2.61321 24.863 2.5
      vertex 2.09057 19.8904 -2.5
      vertex -2.09057 19.8904 -2.5
    endloop
  endfacet
  facet normal 0.526924 0.474445 -0.705162
    outer loop
      vertex 20.2254 14.6946 2.5
      vertex 16.1803 11.7557 -2.5
      vertex 16.7283 18.5786 2.5
    endloop
  endfacet
  facet normal -0.288395 0.647746 -0.705162
    outer loop
      vertex -6.18034 19.0211 -2.5
      vertex -10 17.3205 -2.5
      vertex -7.72542 23.7764 2.5
    endloop
  endfacet
  facet normal -0.147419 0.693552 -0.705162
    outer loop
      vertex -6.18034 19.0211 -2.5
      vertex -7.72542 23.7764 2.5
      vertex -2.61321 24.863 2.5
    endloop
  endfacet
  facet normal -0.614052 0.354523 -0.705162
    outer loop
      vertex -18.2709 8.13473 -2.5
      vertex -22.8386 10.1684 2.5
      vertex -16.1803 11.7557 -2.5
    endloop
  endfacet
  facet normal -0.614052 0.354523 -0.705162
    outer loop
      vertex -16.1803 11.7557 -2.5
      vertex -22.8386 10.1684 2.5
      vertex -20.2254 14.6946 2.5
    endloop
  endfacet
  facet normal -0.526924 0.474445 -0.705162
    outer loop
      vertex -16.1803 11.7557 -2.5
      vertex -16.7283 18.5786 2.5
      vertex -13.3826 14.8629 -2.5
    endloop
  endfacet
  facet normal -0.526924 0.474445 -0.705162
    outer loop
      vertex -16.1803 11.7557 -2.5
      vertex -20.2254 14.6946 2.5
      vertex -16.7283 18.5786 2.5
    endloop
  endfacet
  facet normal -0.288395 -0.647746 -0.705162
    outer loop
      vertex -7.72542 -23.7764 2.5
      vertex -10 -17.3205 -2.5
      vertex -6.18034 -19.0211 -2.5
    endloop
  endfacet
  facet normal -0.416767 -0.57363 -0.705162
    outer loop
      vertex -10 -17.3205 -2.5
      vertex -16.7283 -18.5786 2.5
      vertex -13.3826 -14.8629 -2.5
    endloop
  endfacet
  facet normal -0.416767 -0.57363 -0.705162
    outer loop
      vertex -12.5 -21.6506 2.5
      vertex -16.7283 -18.5786 2.5
      vertex -10 -17.3205 -2.5
    endloop
  endfacet
  facet normal 0.147419 0.693552 -0.705162
    outer loop
      vertex 6.18034 19.0211 -2.5
      vertex 2.09057 19.8904 -2.5
      vertex 2.61321 24.863 2.5
    endloop
  endfacet
  facet normal 0.614052 0.354523 -0.705162
    outer loop
      vertex 22.8386 10.1684 2.5
      vertex 16.1803 11.7557 -2.5
      vertex 20.2254 14.6946 2.5
    endloop
  endfacet
  facet normal -0.416767 0.57363 -0.705162
    outer loop
      vertex -13.3826 14.8629 -2.5
      vertex -16.7283 18.5786 2.5
      vertex -10 17.3205 -2.5
    endloop
  endfacet
  facet normal -0.416767 0.57363 -0.705162
    outer loop
      vertex -10 17.3205 -2.5
      vertex -16.7283 18.5786 2.5
      vertex -12.5 21.6506 2.5
    endloop
  endfacet
  facet normal 0.147419 0.693552 -0.705162
    outer loop
      vertex 6.18034 19.0211 -2.5
      vertex 2.61321 24.863 2.5
      vertex 7.72542 23.7764 2.5
    endloop
  endfacet
  facet normal 0.288395 0.647746 -0.705162
    outer loop
      vertex 10 17.3205 -2.5
      vertex 6.18034 19.0211 -2.5
      vertex 7.72542 23.7764 2.5
    endloop
  endfacet
  facet normal 0.416767 0.57363 -0.705162
    outer loop
      vertex 13.3826 14.8629 -2.5
      vertex 10 17.3205 -2.5
      vertex 16.7283 18.5786 2.5
    endloop
  endfacet
  facet normal 0.416767 0.57363 -0.705162
    outer loop
      vertex 16.7283 18.5786 2.5
      vertex 10 17.3205 -2.5
      vertex 12.5 21.6506 2.5
    endloop
  endfacet
  facet normal 0.674343 0.219107 -0.705162
    outer loop
      vertex 24.4537 5.19779 2.5
      vertex 19.563 4.15823 -2.5
      vertex 22.8386 10.1684 2.5
    endloop
  endfacet
  facet normal 0.526924 0.474445 -0.705162
    outer loop
      vertex 16.1803 11.7557 -2.5
      vertex 13.3826 14.8629 -2.5
      vertex 16.7283 18.5786 2.5
    endloop
  endfacet
  facet normal 0.614052 0.354523 -0.705162
    outer loop
      vertex 18.2709 8.13473 -2.5
      vertex 16.1803 11.7557 -2.5
      vertex 22.8386 10.1684 2.5
    endloop
  endfacet
  facet normal 0.674343 0.219107 -0.705162
    outer loop
      vertex 19.563 4.15823 -2.5
      vertex 18.2709 8.13473 -2.5
      vertex 22.8386 10.1684 2.5
    endloop
  endfacet
  facet normal -0.674343 0.219107 0.705162
    outer loop
      vertex 21.5284 -7.76434 2.5
      vertex 22.4974 -4.78197 2.5
      vertex 19.563 -4.15823 -0.5
    endloop
  endfacet
  facet normal -0.705162 -0.0741154 0.705162
    outer loop
      vertex 23 0 2.5
      vertex 22.6722 3.11868 2.5
      vertex 20 0 -0.5
    endloop
  endfacet
  facet normal -0.705162 -0.0741158 0.705162
    outer loop
      vertex 19.563 4.15823 -0.5
      vertex 22.6722 3.11868 2.5
      vertex 22.4974 4.78197 2.5
    endloop
  endfacet
  facet normal -0.705162 -0.0741158 0.705162
    outer loop
      vertex 22.6722 3.11868 2.5
      vertex 19.563 4.15823 -0.5
      vertex 20 0 -0.5
    endloop
  endfacet
  facet normal -0.705162 0.0741158 0.705162
    outer loop
      vertex 19.563 -4.15823 -0.5
      vertex 22.6722 -3.11868 2.5
      vertex 20 0 -0.5
    endloop
  endfacet
  facet normal -0.705162 0.0741158 0.705162
    outer loop
      vertex 22.6722 -3.11868 2.5
      vertex 19.563 -4.15823 -0.5
      vertex 22.4974 -4.78197 2.5
    endloop
  endfacet
  facet normal 0.705162 0.0741158 0.705162
    outer loop
      vertex -22.6722 -3.11868 2.5
      vertex -19.563 -4.15823 -0.5
      vertex -20 0 -0.5
    endloop
  endfacet
  facet normal 0.705162 0.0741158 0.705162
    outer loop
      vertex -19.563 -4.15823 -0.5
      vertex -22.6722 -3.11868 2.5
      vertex -22.4974 -4.78197 2.5
    endloop
  endfacet
  facet normal 0.147419 -0.693552 0.705162
    outer loop
      vertex -4.04006 22.5263 2.5
      vertex -2.09057 19.8904 -0.5
      vertex -2.40415 22.874 2.5
    endloop
  endfacet
  facet normal 0.147419 -0.693552 0.705162
    outer loop
      vertex -2.09057 19.8904 -0.5
      vertex -4.04006 22.5263 2.5
      vertex -6.18034 19.0211 -0.5
    endloop
  endfacet
  facet normal -0.416767 0.57363 0.705162
    outer loop
      vertex 11.5 -19.9186 2.5
      vertex 14.037 -18.0754 2.5
      vertex 10 -17.3205 -0.5
    endloop
  endfacet
  facet normal -0.705162 0.0741154 0.705162
    outer loop
      vertex 22.6722 -3.11868 2.5
      vertex 23 0 2.5
      vertex 20 0 -0.5
    endloop
  endfacet
  facet normal 0.147419 0.693552 0.705162
    outer loop
      vertex -2.09057 -19.8904 -0.5
      vertex -4.04006 -22.5263 2.5
      vertex -2.40415 -22.874 2.5
    endloop
  endfacet
  facet normal 0.147419 0.693552 0.705162
    outer loop
      vertex -4.04006 -22.5263 2.5
      vertex -2.09057 -19.8904 -0.5
      vertex -6.18034 -19.0211 -0.5
    endloop
  endfacet
  facet normal 0.674343 0.219107 0.705162
    outer loop
      vertex -21.5284 -7.76434 2.5
      vertex -19.563 -4.15823 -0.5
      vertex -22.4974 -4.78197 2.5
    endloop
  endfacet
  facet normal 0 0.709046 0.705162
    outer loop
      vertex 2.09057 -19.8904 -0.5
      vertex -2.40415 -22.874 2.5
      vertex 2.40415 -22.874 2.5
    endloop
  endfacet
  facet normal 0 0.709046 0.705162
    outer loop
      vertex -2.40415 -22.874 2.5
      vertex 2.09057 -19.8904 -0.5
      vertex -2.09057 -19.8904 -0.5
    endloop
  endfacet
  facet normal 0.705162 -0.0741158 0.705162
    outer loop
      vertex -22.6722 3.11868 2.5
      vertex -19.563 4.15823 -0.5
      vertex -22.4974 4.78197 2.5
    endloop
  endfacet
  facet normal 0.705162 -0.0741158 0.705162
    outer loop
      vertex -19.563 4.15823 -0.5
      vertex -22.6722 3.11868 2.5
      vertex -20 0 -0.5
    endloop
  endfacet
  facet normal -0.674343 0.219107 0.705162
    outer loop
      vertex 18.2709 -8.13473 -0.5
      vertex 21.5284 -7.76434 2.5
      vertex 19.563 -4.15823 -0.5
    endloop
  endfacet
  facet normal -0.674343 0.219107 0.705162
    outer loop
      vertex 21.5284 -7.76434 2.5
      vertex 18.2709 -8.13473 -0.5
      vertex 21.0115 -9.35494 2.5
    endloop
  endfacet
  facet normal -0.614052 0.354523 0.705162
    outer loop
      vertex 18.2709 -8.13473 -0.5
      vertex 20.1753 -10.8033 2.5
      vertex 21.0115 -9.35494 2.5
    endloop
  endfacet
  facet normal -0.614052 0.354523 0.705162
    outer loop
      vertex 20.1753 -10.8033 2.5
      vertex 18.2709 -8.13473 -0.5
      vertex 16.1803 -11.7557 -0.5
    endloop
  endfacet
  facet normal -0.614052 0.354523 0.705162
    outer loop
      vertex 18.6074 -13.5191 2.5
      vertex 20.1753 -10.8033 2.5
      vertex 16.1803 -11.7557 -0.5
    endloop
  endfacet
  facet normal -0.416767 0.573631 0.705162
    outer loop
      vertex 13.3826 -14.8629 -0.5
      vertex 14.037 -18.0754 2.5
      vertex 15.39 -17.0923 2.5
    endloop
  endfacet
  facet normal -0.416767 0.57363 0.705162
    outer loop
      vertex 14.037 -18.0754 2.5
      vertex 13.3826 -14.8629 -0.5
      vertex 10 -17.3205 -0.5
    endloop
  endfacet
  facet normal -0.147419 0.693552 0.705162
    outer loop
      vertex 7.10739 -21.8743 2.5
      vertex 6.18034 -19.0211 -0.5
      vertex 4.04006 -22.5263 2.5
    endloop
  endfacet
  facet normal -0.526924 0.474445 0.705162
    outer loop
      vertex 13.3826 -14.8629 -0.5
      vertex 16.5091 -15.8495 2.5
      vertex 16.1803 -11.7557 -0.5
    endloop
  endfacet
  facet normal -0.526924 0.474444 0.705162
    outer loop
      vertex 16.5091 -15.8495 2.5
      vertex 13.3826 -14.8629 -0.5
      vertex 15.39 -17.0923 2.5
    endloop
  endfacet
  facet normal -0.526924 0.474445 0.705162
    outer loop
      vertex 16.5091 -15.8495 2.5
      vertex 18.6074 -13.5191 2.5
      vertex 16.1803 -11.7557 -0.5
    endloop
  endfacet
  facet normal 0.674343 0.219107 0.705162
    outer loop
      vertex -21.5284 -7.76434 2.5
      vertex -18.2709 -8.13473 -0.5
      vertex -19.563 -4.15823 -0.5
    endloop
  endfacet
  facet normal 0.674343 0.219107 0.705162
    outer loop
      vertex -18.2709 -8.13473 -0.5
      vertex -21.5284 -7.76434 2.5
      vertex -21.0115 -9.35494 2.5
    endloop
  endfacet
  facet normal 0.526924 0.474445 0.705162
    outer loop
      vertex -16.5091 -15.8495 2.5
      vertex -16.1803 -11.7557 -0.5
      vertex -18.6074 -13.5191 2.5
    endloop
  endfacet
  facet normal -0.526924 -0.474445 0.705162
    outer loop
      vertex 18.6074 13.5191 2.5
      vertex 16.5091 15.8495 2.5
      vertex 16.1803 11.7557 -0.5
    endloop
  endfacet
  facet normal 0.526924 -0.474445 0.705162
    outer loop
      vertex -16.1803 11.7557 -0.5
      vertex -16.5091 15.8495 2.5
      vertex -18.6074 13.5191 2.5
    endloop
  endfacet
  facet normal 0.674343 -0.219107 0.705162
    outer loop
      vertex -19.563 4.15823 -0.5
      vertex -21.5284 7.76434 2.5
      vertex -22.4974 4.78197 2.5
    endloop
  endfacet
  facet normal 0.674343 -0.219107 0.705162
    outer loop
      vertex -21.5284 7.76434 2.5
      vertex -18.2709 8.13473 -0.5
      vertex -21.0115 9.35494 2.5
    endloop
  endfacet
  facet normal 0.674343 -0.219107 0.705162
    outer loop
      vertex -18.2709 8.13473 -0.5
      vertex -21.5284 7.76434 2.5
      vertex -19.563 4.15823 -0.5
    endloop
  endfacet
  facet normal 0.705162 -0.0741154 0.705162
    outer loop
      vertex -20 0 -0.5
      vertex -22.6722 3.11868 2.5
      vertex -23 0 2.5
    endloop
  endfacet
  facet normal 0.705162 0.0741154 0.705162
    outer loop
      vertex -22.6722 -3.11868 2.5
      vertex -20 0 -0.5
      vertex -23 0 2.5
    endloop
  endfacet
  facet normal -0.147419 0.693552 0.705162
    outer loop
      vertex 2.09057 -19.8904 -0.5
      vertex 4.04006 -22.5263 2.5
      vertex 6.18034 -19.0211 -0.5
    endloop
  endfacet
  facet normal -0.147419 0.693552 0.705162
    outer loop
      vertex 4.04006 -22.5263 2.5
      vertex 2.09057 -19.8904 -0.5
      vertex 2.40415 -22.874 2.5
    endloop
  endfacet
  facet normal -0.288395 0.647746 0.705162
    outer loop
      vertex 6.18034 -19.0211 -0.5
      vertex 8.63525 -21.194 2.5
      vertex 10 -17.3205 -0.5
    endloop
  endfacet
  facet normal -0.288395 0.647746 0.705162
    outer loop
      vertex 8.63525 -21.194 2.5
      vertex 6.18034 -19.0211 -0.5
      vertex 7.10739 -21.8743 2.5
    endloop
  endfacet
  facet normal -0.288395 0.647746 0.705162
    outer loop
      vertex 11.5 -19.9186 2.5
      vertex 10 -17.3205 -0.5
      vertex 8.63525 -21.194 2.5
    endloop
  endfacet
  facet normal 0 0 1
    outer loop
      vertex 3.75 0 -0.5
      vertex 20 0 -0.5
      vertex 19.563 4.15823 -0.5
    endloop
  endfacet
  facet normal 0 0 1
    outer loop
      vertex 3.24759 1.875 -0.5
      vertex 19.563 4.15823 -0.5
      vertex 18.2709 8.13473 -0.5
    endloop
  endfacet
  facet normal 0 0 1
    outer loop
      vertex 20 0 -0.5
      vertex 3.75 0 -0.5
      vertex 19.563 -4.15823 -0.5
    endloop
  endfacet
  facet normal 0 0 1
    outer loop
      vertex 3.24759 1.875 -0.5
      vertex 18.2709 8.13473 -0.5
      vertex 16.1803 11.7557 -0.5
    endloop
  endfacet
  facet normal -0 0 1
    outer loop
      vertex 3.24759 -1.875 -0.5
      vertex 19.563 -4.15823 -0.5
      vertex 3.75 0 -0.5
    endloop
  endfacet
  facet normal 0 0 1
    outer loop
      vertex 3.24759 1.875 -0.5
      vertex 16.1803 11.7557 -0.5
      vertex 13.3826 14.8629 -0.5
    endloop
  endfacet
  facet normal 0 0 1
    outer loop
      vertex 19.563 -4.15823 -0.5
      vertex 3.24759 -1.875 -0.5
      vertex 18.2709 -8.13473 -0.5
    endloop
  endfacet
  facet normal 0 0 1
    outer loop
      vertex 1.875 3.24759 -0.5
      vertex 13.3826 14.8629 -0.5
      vertex 10 17.3205 -0.5
    endloop
  endfacet
  facet normal 0 0 1
    outer loop
      vertex 18.2709 -8.13473 -0.5
      vertex 3.24759 -1.875 -0.5
      vertex 16.1803 -11.7557 -0.5
    endloop
  endfacet
  facet normal 0 0 1
    outer loop
      vertex 1.875 3.24759 -0.5
      vertex 10 17.3205 -0.5
      vertex 6.18034 19.0211 -0.5
    endloop
  endfacet
  facet normal 0 0 1
    outer loop
      vertex 16.1803 -11.7557 -0.5
      vertex 3.24759 -1.875 -0.5
      vertex 13.3826 -14.8629 -0.5
    endloop
  endfacet
  facet normal -0 0 1
    outer loop
      vertex 1.875 -3.24759 -0.5
      vertex 13.3826 -14.8629 -0.5
      vertex 3.24759 -1.875 -0.5
    endloop
  endfacet
  facet normal 0 0 1
    outer loop
      vertex 19.563 4.15823 -0.5
      vertex 3.24759 1.875 -0.5
      vertex 3.75 0 -0.5
    endloop
  endfacet
  facet normal 0 0 1
    outer loop
      vertex 0 3.75 -0.5
      vertex 6.18034 19.0211 -0.5
      vertex 2.09057 19.8904 -0.5
    endloop
  endfacet
  facet normal 0 0 1
    outer loop
      vertex 13.3826 14.8629 -0.5
      vertex 1.875 3.24759 -0.5
      vertex 3.24759 1.875 -0.5
    endloop
  endfacet
  facet normal 0 0 1
    outer loop
      vertex 6.18034 19.0211 -0.5
      vertex 0 3.75 -0.5
      vertex 1.875 3.24759 -0.5
    endloop
  endfacet
  facet normal -0 0 1
    outer loop
      vertex -2.09057 19.8904 -0.5
      vertex 0 3.75 -0.5
      vertex 2.09057 19.8904 -0.5
    endloop
  endfacet
  facet normal -0 0 1
    outer loop
      vertex -6.18034 19.0211 -0.5
      vertex 0 3.75 -0.5
      vertex -2.09057 19.8904 -0.5
    endloop
  endfacet
  facet normal 0 0 1
    outer loop
      vertex 0 3.75 -0.5
      vertex -6.18034 19.0211 -0.5
      vertex -1.875 3.24759 -0.5
    endloop
  endfacet
  facet normal -0 0 1
    outer loop
      vertex -10 17.3205 -0.5
      vertex -1.875 3.24759 -0.5
      vertex -6.18034 19.0211 -0.5
    endloop
  endfacet
  facet normal -0 0 1
    outer loop
      vertex -13.3826 14.8629 -0.5
      vertex -1.875 3.24759 -0.5
      vertex -10 17.3205 -0.5
    endloop
  endfacet
  facet normal 0 0 1
    outer loop
      vertex 13.3826 -14.8629 -0.5
      vertex 1.875 -3.24759 -0.5
      vertex 10 -17.3205 -0.5
    endloop
  endfacet
  facet normal 0 0 1
    outer loop
      vertex 10 -17.3205 -0.5
      vertex 1.875 -3.24759 -0.5
      vertex 6.18034 -19.0211 -0.5
    endloop
  endfacet
  facet normal -0 0 1
    outer loop
      vertex 0 -3.75 -0.5
      vertex 6.18034 -19.0211 -0.5
      vertex 1.875 -3.24759 -0.5
    endloop
  endfacet
  facet normal 0 0 1
    outer loop
      vertex 6.18034 -19.0211 -0.5
      vertex 0 -3.75 -0.5
      vertex 2.09057 -19.8904 -0.5
    endloop
  endfacet
  facet normal 0 0 1
    outer loop
      vertex -6.18034 -19.0211 -0.5
      vertex 0 -3.75 -0.5
      vertex -1.875 -3.24759 -0.5
    endloop
  endfacet
  facet normal 0 0 1
    outer loop
      vertex 0 -3.75 -0.5
      vertex -2.09057 -19.8904 -0.5
      vertex 2.09057 -19.8904 -0.5
    endloop
  endfacet
  facet normal 0 0 1
    outer loop
      vertex -13.3826 -14.8629 -0.5
      vertex -1.875 -3.24759 -0.5
      vertex -3.24759 -1.875 -0.5
    endloop
  endfacet
  facet normal 0 0 1
    outer loop
      vertex -19.563 -4.15823 -0.5
      vertex -3.24759 -1.875 -0.5
      vertex -3.75 0 -0.5
    endloop
  endfacet
  facet normal 0 0 1
    outer loop
      vertex -1.875 3.24759 -0.5
      vertex -13.3826 14.8629 -0.5
      vertex -3.24759 1.875 -0.5
    endloop
  endfacet
  facet normal 0 0 1
    outer loop
      vertex 0 -3.75 -0.5
      vertex -6.18034 -19.0211 -0.5
      vertex -2.09057 -19.8904 -0.5
    endloop
  endfacet
  facet normal -0 0 1
    outer loop
      vertex -16.1803 11.7557 -0.5
      vertex -3.24759 1.875 -0.5
      vertex -13.3826 14.8629 -0.5
    endloop
  endfacet
  facet normal 0 0 1
    outer loop
      vertex -1.875 -3.24759 -0.5
      vertex -10 -17.3205 -0.5
      vertex -6.18034 -19.0211 -0.5
    endloop
  endfacet
  facet normal -0 0 1
    outer loop
      vertex -18.2709 8.13473 -0.5
      vertex -3.24759 1.875 -0.5
      vertex -16.1803 11.7557 -0.5
    endloop
  endfacet
  facet normal 0 0 1
    outer loop
      vertex -1.875 -3.24759 -0.5
      vertex -13.3826 -14.8629 -0.5
      vertex -10 -17.3205 -0.5
    endloop
  endfacet
  facet normal -0 0 1
    outer loop
      vertex -19.563 4.15823 -0.5
      vertex -3.24759 1.875 -0.5
      vertex -18.2709 8.13473 -0.5
    endloop
  endfacet
  facet normal 0 0 1
    outer loop
      vertex -3.24759 -1.875 -0.5
      vertex -16.1803 -11.7557 -0.5
      vertex -13.3826 -14.8629 -0.5
    endloop
  endfacet
  facet normal 0 0 1
    outer loop
      vertex -3.24759 1.875 -0.5
      vertex -19.563 4.15823 -0.5
      vertex -3.75 0 -0.5
    endloop
  endfacet
  facet normal 0 0 1
    outer loop
      vertex -3.24759 -1.875 -0.5
      vertex -18.2709 -8.13473 -0.5
      vertex -16.1803 -11.7557 -0.5
    endloop
  endfacet
  facet normal 0 0 1
    outer loop
      vertex -20 0 -0.5
      vertex -3.75 0 -0.5
      vertex -19.563 4.15823 -0.5
    endloop
  endfacet
  facet normal 0 0 1
    outer loop
      vertex -3.24759 -1.875 -0.5
      vertex -19.563 -4.15823 -0.5
      vertex -18.2709 -8.13473 -0.5
    endloop
  endfacet
  facet normal 0 0 1
    outer loop
      vertex -3.75 0 -0.5
      vertex -20 0 -0.5
      vertex -19.563 -4.15823 -0.5
    endloop
  endfacet
  facet normal 0.614052 0.354523 0.705162
    outer loop
      vertex -18.2709 -8.13473 -0.5
      vertex -20.1753 -10.8033 2.5
      vertex -16.1803 -11.7557 -0.5
    endloop
  endfacet
  facet normal 0.614052 0.354523 0.705162
    outer loop
      vertex -20.1753 -10.8033 2.5
      vertex -18.2709 -8.13473 -0.5
      vertex -21.0115 -9.35494 2.5
    endloop
  endfacet
  facet normal 0.288395 0.647746 0.705162
    outer loop
      vertex -8.63525 -21.194 2.5
      vertex -10 -17.3205 -0.5
      vertex -11.5 -19.9186 2.5
    endloop
  endfacet
  facet normal 0.147419 0.693552 0.705162
    outer loop
      vertex -4.04006 -22.5263 2.5
      vertex -6.18034 -19.0211 -0.5
      vertex -7.10739 -21.8743 2.5
    endloop
  endfacet
  facet normal 0.526924 0.474445 0.705162
    outer loop
      vertex -16.5091 -15.8495 2.5
      vertex -13.3826 -14.8629 -0.5
      vertex -16.1803 -11.7557 -0.5
    endloop
  endfacet
  facet normal 0.526924 0.474444 0.705162
    outer loop
      vertex -13.3826 -14.8629 -0.5
      vertex -16.5091 -15.8495 2.5
      vertex -15.39 -17.0923 2.5
    endloop
  endfacet
  facet normal 0.614052 0.354523 0.705162
    outer loop
      vertex -18.6074 -13.5191 2.5
      vertex -16.1803 -11.7557 -0.5
      vertex -20.1753 -10.8033 2.5
    endloop
  endfacet
  facet normal 0 -0.709046 0.705162
    outer loop
      vertex -2.09057 19.8904 -0.5
      vertex 2.40415 22.874 2.5
      vertex -2.40415 22.874 2.5
    endloop
  endfacet
  facet normal 0 -0.709046 0.705162
    outer loop
      vertex 2.40415 22.874 2.5
      vertex -2.09057 19.8904 -0.5
      vertex 2.09057 19.8904 -0.5
    endloop
  endfacet
  facet normal 0.416767 -0.57363 0.705162
    outer loop
      vertex -14.037 18.0754 2.5
      vertex -13.3826 14.8629 -0.5
      vertex -10 17.3205 -0.5
    endloop
  endfacet
  facet normal 0.416767 -0.573631 0.705162
    outer loop
      vertex -13.3826 14.8629 -0.5
      vertex -14.037 18.0754 2.5
      vertex -15.39 17.0923 2.5
    endloop
  endfacet
  facet normal 0.147419 -0.693552 0.705162
    outer loop
      vertex -6.18034 19.0211 -0.5
      vertex -4.04006 22.5263 2.5
      vertex -7.10739 21.8743 2.5
    endloop
  endfacet
  facet normal 0.614052 -0.354523 0.705162
    outer loop
      vertex -20.1753 10.8033 2.5
      vertex -18.2709 8.13473 -0.5
      vertex -16.1803 11.7557 -0.5
    endloop
  endfacet
  facet normal 0.614052 -0.354523 0.705162
    outer loop
      vertex -18.2709 8.13473 -0.5
      vertex -20.1753 10.8033 2.5
      vertex -21.0115 9.35494 2.5
    endloop
  endfacet
  facet normal 0.614052 -0.354523 0.705162
    outer loop
      vertex -16.1803 11.7557 -0.5
      vertex -18.6074 13.5191 2.5
      vertex -20.1753 10.8033 2.5
    endloop
  endfacet
  facet normal 0.416767 -0.57363 0.705162
    outer loop
      vertex -10 17.3205 -0.5
      vertex -11.5 19.9186 2.5
      vertex -14.037 18.0754 2.5
    endloop
  endfacet
  facet normal 0.526924 -0.474444 0.705162
    outer loop
      vertex -16.5091 15.8495 2.5
      vertex -13.3826 14.8629 -0.5
      vertex -15.39 17.0923 2.5
    endloop
  endfacet
  facet normal 0.526924 -0.474445 0.705162
    outer loop
      vertex -13.3826 14.8629 -0.5
      vertex -16.5091 15.8495 2.5
      vertex -16.1803 11.7557 -0.5
    endloop
  endfacet
  facet normal 0.288395 0.647746 0.705162
    outer loop
      vertex -6.18034 -19.0211 -0.5
      vertex -8.63525 -21.194 2.5
      vertex -7.10739 -21.8743 2.5
    endloop
  endfacet
  facet normal 0.288395 0.647746 0.705162
    outer loop
      vertex -8.63525 -21.194 2.5
      vertex -6.18034 -19.0211 -0.5
      vertex -10 -17.3205 -0.5
    endloop
  endfacet
  facet normal 0.416767 0.57363 0.705162
    outer loop
      vertex -13.3826 -14.8629 -0.5
      vertex -14.037 -18.0754 2.5
      vertex -10 -17.3205 -0.5
    endloop
  endfacet
  facet normal 0.416767 0.573631 0.705162
    outer loop
      vertex -14.037 -18.0754 2.5
      vertex -13.3826 -14.8629 -0.5
      vertex -15.39 -17.0923 2.5
    endloop
  endfacet
  facet normal 0.416767 0.57363 0.705162
    outer loop
      vertex -11.5 -19.9186 2.5
      vertex -10 -17.3205 -0.5
      vertex -14.037 -18.0754 2.5
    endloop
  endfacet
  facet normal -0.288395 -0.647746 0.705162
    outer loop
      vertex 10 17.3205 -0.5
      vertex 11.5 19.9186 2.5
      vertex 8.63525 21.194 2.5
    endloop
  endfacet
  facet normal -0.147419 -0.693552 0.705162
    outer loop
      vertex 6.18034 19.0211 -0.5
      vertex 7.10739 21.8743 2.5
      vertex 4.04006 22.5263 2.5
    endloop
  endfacet
  facet normal -0.288395 -0.647746 0.705162
    outer loop
      vertex 6.18034 19.0211 -0.5
      vertex 8.63525 21.194 2.5
      vertex 7.10739 21.8743 2.5
    endloop
  endfacet
  facet normal -0.288395 -0.647746 0.705162
    outer loop
      vertex 8.63525 21.194 2.5
      vertex 6.18034 19.0211 -0.5
      vertex 10 17.3205 -0.5
    endloop
  endfacet
  facet normal -0.614052 -0.354523 0.705162
    outer loop
      vertex 20.1753 10.8033 2.5
      vertex 18.6074 13.5191 2.5
      vertex 16.1803 11.7557 -0.5
    endloop
  endfacet
  facet normal 0.288395 -0.647746 0.705162
    outer loop
      vertex -10 17.3205 -0.5
      vertex -8.63525 21.194 2.5
      vertex -11.5 19.9186 2.5
    endloop
  endfacet
  facet normal 0.288395 -0.647746 0.705162
    outer loop
      vertex -8.63525 21.194 2.5
      vertex -6.18034 19.0211 -0.5
      vertex -7.10739 21.8743 2.5
    endloop
  endfacet
  facet normal 0.288395 -0.647746 0.705162
    outer loop
      vertex -6.18034 19.0211 -0.5
      vertex -8.63525 21.194 2.5
      vertex -10 17.3205 -0.5
    endloop
  endfacet
  facet normal -0.147419 -0.693552 0.705162
    outer loop
      vertex 2.09057 19.8904 -0.5
      vertex 4.04006 22.5263 2.5
      vertex 2.40415 22.874 2.5
    endloop
  endfacet
  facet normal -0.147419 -0.693552 0.705162
    outer loop
      vertex 4.04006 22.5263 2.5
      vertex 2.09057 19.8904 -0.5
      vertex 6.18034 19.0211 -0.5
    endloop
  endfacet
  facet normal -0.416767 -0.57363 0.705162
    outer loop
      vertex 14.037 18.0754 2.5
      vertex 11.5 19.9186 2.5
      vertex 10 17.3205 -0.5
    endloop
  endfacet
  facet normal -0.674343 -0.219107 0.705162
    outer loop
      vertex 22.4974 4.78197 2.5
      vertex 21.5284 7.76434 2.5
      vertex 19.563 4.15823 -0.5
    endloop
  endfacet
  facet normal -0.416767 -0.573631 0.705162
    outer loop
      vertex 14.037 18.0754 2.5
      vertex 13.3826 14.8629 -0.5
      vertex 15.39 17.0923 2.5
    endloop
  endfacet
  facet normal -0.416767 -0.57363 0.705162
    outer loop
      vertex 13.3826 14.8629 -0.5
      vertex 14.037 18.0754 2.5
      vertex 10 17.3205 -0.5
    endloop
  endfacet
  facet normal -0.526924 -0.474444 0.705162
    outer loop
      vertex 13.3826 14.8629 -0.5
      vertex 16.5091 15.8495 2.5
      vertex 15.39 17.0923 2.5
    endloop
  endfacet
  facet normal -0.526924 -0.474445 0.705162
    outer loop
      vertex 16.5091 15.8495 2.5
      vertex 13.3826 14.8629 -0.5
      vertex 16.1803 11.7557 -0.5
    endloop
  endfacet
  facet normal -0.614052 -0.354523 0.705162
    outer loop
      vertex 20.1753 10.8033 2.5
      vertex 18.2709 8.13473 -0.5
      vertex 21.0115 9.35494 2.5
    endloop
  endfacet
  facet normal -0.614052 -0.354523 0.705162
    outer loop
      vertex 18.2709 8.13473 -0.5
      vertex 20.1753 10.8033 2.5
      vertex 16.1803 11.7557 -0.5
    endloop
  endfacet
  facet normal -0.674343 -0.219107 0.705162
    outer loop
      vertex 18.2709 8.13473 -0.5
      vertex 21.5284 7.76434 2.5
      vertex 21.0115 9.35494 2.5
    endloop
  endfacet
  facet normal -0.674343 -0.219107 0.705162
    outer loop
      vertex 21.5284 7.76434 2.5
      vertex 18.2709 8.13473 -0.5
      vertex 19.563 4.15823 -0.5
    endloop
  endfacet
  facet normal -0.951056 -0.309017 0
    outer loop
      vertex 2.9 0 -0.5
      vertex 2.34615 1.70458 -0.5
      vertex 2.34615 1.70458 -4
    endloop
  endfacet
  facet normal -0.951056 -0.309017 -0
    outer loop
      vertex 2.9 0 -0.5
      vertex 2.34615 1.70458 -4
      vertex 2.9 0 -4
    endloop
  endfacet
  facet normal -0.951056 -0.309017 0
    outer loop
      vertex 2.34615 1.70458 -0.5
      vertex 2.9 0 -0.5
      vertex 2.34615 1.70458 8
    endloop
  endfacet
  facet normal -0.951056 -0.309017 0
    outer loop
      vertex 2.34615 1.70458 8
      vertex 2.9 0 -0.5
      vertex 2.9 0 8
    endloop
  endfacet
  facet normal 0.951056 -0.309017 0
    outer loop
      vertex -2.9 0 -0.5
      vertex -2.34615 1.70458 -0.5
      vertex -2.34615 1.70458 8
    endloop
  endfacet
  facet normal 0.951056 -0.309017 0
    outer loop
      vertex -2.9 0 -0.5
      vertex -2.34615 1.70458 8
      vertex -2.9 0 8
    endloop
  endfacet
  facet normal 0.951056 -0.309017 0
    outer loop
      vertex -2.34615 1.70458 -0.5
      vertex -2.9 0 -0.5
      vertex -2.34615 1.70458 -4
    endloop
  endfacet
  facet normal 0.951056 -0.309017 0
    outer loop
      vertex -2.34615 1.70458 -4
      vertex -2.9 0 -0.5
      vertex -2.9 0 -4
    endloop
  endfacet
  facet normal 0 1 -0
    outer loop
      vertex 0.896149 -2.75806 -0.5
      vertex -0.896149 -2.75806 8
      vertex 0.896149 -2.75806 8
    endloop
  endfacet
  facet normal 0 1 0
    outer loop
      vertex 0.896149 -2.75806 -0.5
      vertex -0.896149 -2.75806 -0.5
      vertex -0.896149 -2.75806 8
    endloop
  endfacet
  facet normal 0 1 -0
    outer loop
      vertex 0.896149 -2.75806 -4
      vertex -0.896149 -2.75806 -0.5
      vertex 0.896149 -2.75806 -0.5
    endloop
  endfacet
  facet normal 0 1 0
    outer loop
      vertex -0.896149 -2.75806 -0.5
      vertex 0.896149 -2.75806 -4
      vertex -0.896149 -2.75806 -4
    endloop
  endfacet
  facet normal -0.587785 -0.809017 0
    outer loop
      vertex 0.896149 2.75806 -0.5
      vertex 2.34615 1.70458 8
      vertex 0.896149 2.75806 8
    endloop
  endfacet
  facet normal -0.587785 -0.809017 0
    outer loop
      vertex 0.896149 2.75806 -0.5
      vertex 2.34615 1.70458 -0.5
      vertex 2.34615 1.70458 8
    endloop
  endfacet
  facet normal -0.587785 -0.809017 0
    outer loop
      vertex 0.896149 2.75806 -4
      vertex 2.34615 1.70458 -0.5
      vertex 0.896149 2.75806 -0.5
    endloop
  endfacet
  facet normal -0.587785 -0.809017 -0
    outer loop
      vertex 2.34615 1.70458 -0.5
      vertex 0.896149 2.75806 -4
      vertex 2.34615 1.70458 -4
    endloop
  endfacet
  facet normal 0 -1 0
    outer loop
      vertex -0.896149 2.75806 -0.5
      vertex 0.896149 2.75806 8
      vertex -0.896149 2.75806 8
    endloop
  endfacet
  facet normal 0 -1 0
    outer loop
      vertex -0.896149 2.75806 -0.5
      vertex 0.896149 2.75806 -0.5
      vertex 0.896149 2.75806 8
    endloop
  endfacet
  facet normal 0 -1 0
    outer loop
      vertex -0.896149 2.75806 -4
      vertex 0.896149 2.75806 -0.5
      vertex -0.896149 2.75806 -0.5
    endloop
  endfacet
  facet normal 0 -1 -0
    outer loop
      vertex 0.896149 2.75806 -0.5
      vertex -0.896149 2.75806 -4
      vertex 0.896149 2.75806 -4
    endloop
  endfacet
  facet normal 0.587785 -0.809017 0
    outer loop
      vertex -2.34615 1.70458 -0.5
      vertex -0.896149 2.75806 8
      vertex -2.34615 1.70458 8
    endloop
  endfacet
  facet normal 0.587785 -0.809017 0
    outer loop
      vertex -2.34615 1.70458 -0.5
      vertex -0.896149 2.75806 -0.5
      vertex -0.896149 2.75806 8
    endloop
  endfacet
  facet normal 0.587785 -0.809017 0
    outer loop
      vertex -2.34615 1.70458 -4
      vertex -0.896149 2.75806 -0.5
      vertex -2.34615 1.70458 -0.5
    endloop
  endfacet
  facet normal 0.587785 -0.809017 0
    outer loop
      vertex -0.896149 2.75806 -0.5
      vertex -2.34615 1.70458 -4
      vertex -0.896149 2.75806 -4
    endloop
  endfacet
  facet normal -0.951056 0.309017 0
    outer loop
      vertex 2.34615 -1.70458 -0.5
      vertex 2.9 0 -0.5
      vertex 2.9 0 -4
    endloop
  endfacet
  facet normal -0.951056 0.309017 0
    outer loop
      vertex 2.34615 -1.70458 -0.5
      vertex 2.9 0 -4
      vertex 2.34615 -1.70458 -4
    endloop
  endfacet
  facet normal -0.951056 0.309017 0
    outer loop
      vertex 2.9 0 -0.5
      vertex 2.34615 -1.70458 -0.5
      vertex 2.9 0 8
    endloop
  endfacet
  facet normal -0.951056 0.309017 0
    outer loop
      vertex 2.9 0 8
      vertex 2.34615 -1.70458 -0.5
      vertex 2.34615 -1.70458 8
    endloop
  endfacet
  facet normal 0.951056 0.309017 0
    outer loop
      vertex -2.34615 -1.70458 -0.5
      vertex -2.9 0 -0.5
      vertex -2.9 0 8
    endloop
  endfacet
  facet normal 0.951056 0.309017 -0
    outer loop
      vertex -2.34615 -1.70458 -0.5
      vertex -2.9 0 8
      vertex -2.34615 -1.70458 8
    endloop
  endfacet
  facet normal 0.951056 0.309017 0
    outer loop
      vertex -2.9 0 -0.5
      vertex -2.34615 -1.70458 -0.5
      vertex -2.9 0 -4
    endloop
  endfacet
  facet normal 0.951056 0.309017 0
    outer loop
      vertex -2.9 0 -4
      vertex -2.34615 -1.70458 -0.5
      vertex -2.34615 -1.70458 -4
    endloop
  endfacet
  facet normal -0.587785 0.809017 0
    outer loop
      vertex 2.34615 -1.70458 -0.5
      vertex 0.896149 -2.75806 8
      vertex 2.34615 -1.70458 8
    endloop
  endfacet
  facet normal -0.587785 0.809017 0
    outer loop
      vertex 2.34615 -1.70458 -0.5
      vertex 0.896149 -2.75806 -0.5
      vertex 0.896149 -2.75806 8
    endloop
  endfacet
  facet normal -0.587785 0.809017 0
    outer loop
      vertex 2.34615 -1.70458 -4
      vertex 0.896149 -2.75806 -0.5
      vertex 2.34615 -1.70458 -0.5
    endloop
  endfacet
  facet normal -0.587785 0.809017 0
    outer loop
      vertex 0.896149 -2.75806 -0.5
      vertex 2.34615 -1.70458 -4
      vertex 0.896149 -2.75806 -4
    endloop
  endfacet
  facet normal 0.587785 0.809017 -0
    outer loop
      vertex -0.896149 -2.75806 -0.5
      vertex -2.34615 -1.70458 8
      vertex -0.896149 -2.75806 8
    endloop
  endfacet
  facet normal 0.587785 0.809017 0
    outer loop
      vertex -0.896149 -2.75806 -0.5
      vertex -2.34615 -1.70458 -0.5
      vertex -2.34615 -1.70458 8
    endloop
  endfacet
  facet normal 0.587785 0.809017 -0
    outer loop
      vertex -0.896149 -2.75806 -4
      vertex -2.34615 -1.70458 -0.5
      vertex -0.896149 -2.75806 -0.5
    endloop
  endfacet
  facet normal 0.587785 0.809017 0
    outer loop
      vertex -2.34615 -1.70458 -0.5
      vertex -0.896149 -2.75806 -4
      vertex -2.34615 -1.70458 -4
    endloop
  endfacet
  facet normal 0.965926 0.258819 0
    outer loop
      vertex 3.75 0 -2.5
      vertex 3.24759 1.875 -4
      vertex 3.24759 1.875 -2.5
    endloop
  endfacet
  facet normal 0.965926 0.258819 0
    outer loop
      vertex 3.24759 1.875 -4
      vertex 3.75 0 -2.5
      vertex 3.75 0 -4
    endloop
  endfacet
  facet normal 0.965926 0.258819 0
    outer loop
      vertex 3.75 0 8
      vertex 3.24759 1.875 -0.5
      vertex 3.24759 1.875 8
    endloop
  endfacet
  facet normal 0.965926 0.258819 0
    outer loop
      vertex 3.24759 1.875 -0.5
      vertex 3.75 0 8
      vertex 3.75 0 -0.5
    endloop
  endfacet
  facet normal -0.965926 0.258819 0
    outer loop
      vertex -3.75 0 -4
      vertex -3.24759 1.875 -2.5
      vertex -3.24759 1.875 -4
    endloop
  endfacet
  facet normal -0.965926 0.258819 0
    outer loop
      vertex -3.24759 1.875 -2.5
      vertex -3.75 0 -4
      vertex -3.75 0 -2.5
    endloop
  endfacet
  facet normal -0.965926 0.258819 0
    outer loop
      vertex -3.75 0 -0.5
      vertex -3.24759 1.875 8
      vertex -3.24759 1.875 -0.5
    endloop
  endfacet
  facet normal -0.965926 0.258819 0
    outer loop
      vertex -3.24759 1.875 8
      vertex -3.75 0 -0.5
      vertex -3.75 0 8
    endloop
  endfacet
  facet normal 0.258819 0.965926 -0
    outer loop
      vertex 1.875 3.24759 -4
      vertex 0 3.75 -2.5
      vertex 1.875 3.24759 -2.5
    endloop
  endfacet
  facet normal 0.258819 0.965926 0
    outer loop
      vertex 0 3.75 -2.5
      vertex 1.875 3.24759 -4
      vertex 0 3.75 -4
    endloop
  endfacet
  facet normal 0.258819 0.965926 -0
    outer loop
      vertex 1.875 3.24759 -0.5
      vertex 0 3.75 8
      vertex 1.875 3.24759 8
    endloop
  endfacet
  facet normal 0.258819 0.965926 0
    outer loop
      vertex 0 3.75 8
      vertex 1.875 3.24759 -0.5
      vertex 0 3.75 -0.5
    endloop
  endfacet
  facet normal 0.707107 0.707107 0
    outer loop
      vertex 3.24759 1.875 -2.5
      vertex 1.875 3.24759 -4
      vertex 1.875 3.24759 -2.5
    endloop
  endfacet
  facet normal 0.707107 0.707107 0
    outer loop
      vertex 1.875 3.24759 -4
      vertex 3.24759 1.875 -2.5
      vertex 3.24759 1.875 -4
    endloop
  endfacet
  facet normal 0.707107 0.707107 0
    outer loop
      vertex 3.24759 1.875 8
      vertex 1.875 3.24759 -0.5
      vertex 1.875 3.24759 8
    endloop
  endfacet
  facet normal 0.707107 0.707107 0
    outer loop
      vertex 1.875 3.24759 -0.5
      vertex 3.24759 1.875 8
      vertex 3.24759 1.875 -0.5
    endloop
  endfacet
  facet normal -0.258819 0.965926 0
    outer loop
      vertex 0 3.75 -4
      vertex -1.875 3.24759 -2.5
      vertex 0 3.75 -2.5
    endloop
  endfacet
  facet normal -0.258819 0.965926 0
    outer loop
      vertex -1.875 3.24759 -2.5
      vertex 0 3.75 -4
      vertex -1.875 3.24759 -4
    endloop
  endfacet
  facet normal -0.258819 0.965926 0
    outer loop
      vertex 0 3.75 -0.5
      vertex -1.875 3.24759 8
      vertex 0 3.75 8
    endloop
  endfacet
  facet normal -0.258819 0.965926 0
    outer loop
      vertex -1.875 3.24759 8
      vertex 0 3.75 -0.5
      vertex -1.875 3.24759 -0.5
    endloop
  endfacet
  facet normal 0 0 -1
    outer loop
      vertex 2.9 0 -4
      vertex 3.75 0 -4
      vertex 3.24759 -1.875 -4
    endloop
  endfacet
  facet normal 0 0 -1
    outer loop
      vertex 3.75 0 -4
      vertex 2.9 0 -4
      vertex 3.24759 1.875 -4
    endloop
  endfacet
  facet normal 0 0 -1
    outer loop
      vertex 3.24759 -1.875 -4
      vertex 2.34615 -1.70458 -4
      vertex 2.9 0 -4
    endloop
  endfacet
  facet normal 0 0 -1
    outer loop
      vertex 1.875 -3.24759 -4
      vertex 2.34615 -1.70458 -4
      vertex 3.24759 -1.875 -4
    endloop
  endfacet
  facet normal 0 0 -1
    outer loop
      vertex 1.875 -3.24759 -4
      vertex 0.896149 -2.75806 -4
      vertex 2.34615 -1.70458 -4
    endloop
  endfacet
  facet normal 0 0 -1
    outer loop
      vertex 0 -3.75 -4
      vertex 0.896149 -2.75806 -4
      vertex 1.875 -3.24759 -4
    endloop
  endfacet
  facet normal 0 0 -1
    outer loop
      vertex 0 -3.75 -4
      vertex -0.896149 -2.75806 -4
      vertex 0.896149 -2.75806 -4
    endloop
  endfacet
  facet normal 0 0 -1
    outer loop
      vertex -1.875 -3.24759 -4
      vertex -0.896149 -2.75806 -4
      vertex 0 -3.75 -4
    endloop
  endfacet
  facet normal 0 0 -1
    outer loop
      vertex -1.875 -3.24759 -4
      vertex -2.34615 -1.70458 -4
      vertex -0.896149 -2.75806 -4
    endloop
  endfacet
  facet normal 0 0 -1
    outer loop
      vertex -3.24759 -1.875 -4
      vertex -2.34615 -1.70458 -4
      vertex -1.875 -3.24759 -4
    endloop
  endfacet
  facet normal -0 0 -1
    outer loop
      vertex -2.34615 -1.70458 -4
      vertex -3.24759 -1.875 -4
      vertex -2.9 0 -4
    endloop
  endfacet
  facet normal 0 0 -1
    outer loop
      vertex 2.34615 1.70458 -4
      vertex 3.24759 1.875 -4
      vertex 2.9 0 -4
    endloop
  endfacet
  facet normal 0 0 -1
    outer loop
      vertex 2.34615 1.70458 -4
      vertex 1.875 3.24759 -4
      vertex 3.24759 1.875 -4
    endloop
  endfacet
  facet normal 0 0 -1
    outer loop
      vertex 0.896149 2.75806 -4
      vertex 1.875 3.24759 -4
      vertex 2.34615 1.70458 -4
    endloop
  endfacet
  facet normal 0 0 -1
    outer loop
      vertex 0.896149 2.75806 -4
      vertex 0 3.75 -4
      vertex 1.875 3.24759 -4
    endloop
  endfacet
  facet normal 0 0 -1
    outer loop
      vertex -0.896149 2.75806 -4
      vertex 0 3.75 -4
      vertex 0.896149 2.75806 -4
    endloop
  endfacet
  facet normal 0 0 -1
    outer loop
      vertex -0.896149 2.75806 -4
      vertex -1.875 3.24759 -4
      vertex 0 3.75 -4
    endloop
  endfacet
  facet normal 0 0 -1
    outer loop
      vertex -2.34615 1.70458 -4
      vertex -1.875 3.24759 -4
      vertex -0.896149 2.75806 -4
    endloop
  endfacet
  facet normal 0 0 -1
    outer loop
      vertex -3.24759 1.875 -4
      vertex -2.34615 1.70458 -4
      vertex -2.9 0 -4
    endloop
  endfacet
  facet normal 0 0 -1
    outer loop
      vertex -2.34615 1.70458 -4
      vertex -3.24759 1.875 -4
      vertex -1.875 3.24759 -4
    endloop
  endfacet
  facet normal 0 0 -1
    outer loop
      vertex -3.75 0 -4
      vertex -2.9 0 -4
      vertex -3.24759 -1.875 -4
    endloop
  endfacet
  facet normal 0 0 -1
    outer loop
      vertex -2.9 0 -4
      vertex -3.75 0 -4
      vertex -3.24759 1.875 -4
    endloop
  endfacet
  facet normal -0.707107 0.707107 0
    outer loop
      vertex -3.24759 1.875 -4
      vertex -1.875 3.24759 -2.5
      vertex -1.875 3.24759 -4
    endloop
  endfacet
  facet normal -0.707107 0.707107 0
    outer loop
      vertex -1.875 3.24759 -2.5
      vertex -3.24759 1.875 -4
      vertex -3.24759 1.875 -2.5
    endloop
  endfacet
  facet normal -0.707107 0.707107 0
    outer loop
      vertex -3.24759 1.875 -0.5
      vertex -1.875 3.24759 8
      vertex -1.875 3.24759 -0.5
    endloop
  endfacet
  facet normal -0.707107 0.707107 0
    outer loop
      vertex -1.875 3.24759 8
      vertex -3.24759 1.875 -0.5
      vertex -3.24759 1.875 8
    endloop
  endfacet
  facet normal 0 0 1
    outer loop
      vertex 2.9 0 8
      vertex 3.75 0 8
      vertex 3.24759 1.875 8
    endloop
  endfacet
  facet normal 0 0 1
    outer loop
      vertex 3.75 0 8
      vertex 2.9 0 8
      vertex 3.24759 -1.875 8
    endloop
  endfacet
  facet normal 0 0 1
    outer loop
      vertex 3.24759 1.875 8
      vertex 2.34615 1.70458 8
      vertex 2.9 0 8
    endloop
  endfacet
  facet normal 0 0 1
    outer loop
      vertex 1.875 3.24759 8
      vertex 2.34615 1.70458 8
      vertex 3.24759 1.875 8
    endloop
  endfacet
  facet normal 0 0 1
    outer loop
      vertex 1.875 3.24759 8
      vertex 0.896149 2.75806 8
      vertex 2.34615 1.70458 8
    endloop
  endfacet
  facet normal 0 0 1
    outer loop
      vertex 0 3.75 8
      vertex 0.896149 2.75806 8
      vertex 1.875 3.24759 8
    endloop
  endfacet
  facet normal 0 0 1
    outer loop
      vertex 0 3.75 8
      vertex -0.896149 2.75806 8
      vertex 0.896149 2.75806 8
    endloop
  endfacet
  facet normal -0 0 1
    outer loop
      vertex -1.875 3.24759 8
      vertex -0.896149 2.75806 8
      vertex 0 3.75 8
    endloop
  endfacet
  facet normal 0 0 1
    outer loop
      vertex -1.875 3.24759 8
      vertex -2.34615 1.70458 8
      vertex -0.896149 2.75806 8
    endloop
  endfacet
  facet normal -0 0 1
    outer loop
      vertex -3.24759 1.875 8
      vertex -2.34615 1.70458 8
      vertex -1.875 3.24759 8
    endloop
  endfacet
  facet normal 0 0 1
    outer loop
      vertex -2.34615 1.70458 8
      vertex -3.24759 1.875 8
      vertex -2.9 0 8
    endloop
  endfacet
  facet normal -0 0 1
    outer loop
      vertex 2.34615 -1.70458 8
      vertex 3.24759 -1.875 8
      vertex 2.9 0 8
    endloop
  endfacet
  facet normal 0 0 1
    outer loop
      vertex 2.34615 -1.70458 8
      vertex 1.875 -3.24759 8
      vertex 3.24759 -1.875 8
    endloop
  endfacet
  facet normal -0 0 1
    outer loop
      vertex 0.896149 -2.75806 8
      vertex 1.875 -3.24759 8
      vertex 2.34615 -1.70458 8
    endloop
  endfacet
  facet normal 0 0 1
    outer loop
      vertex 0.896149 -2.75806 8
      vertex 0 -3.75 8
      vertex 1.875 -3.24759 8
    endloop
  endfacet
  facet normal -0 0 1
    outer loop
      vertex -0.896149 -2.75806 8
      vertex 0 -3.75 8
      vertex 0.896149 -2.75806 8
    endloop
  endfacet
  facet normal 0 0 1
    outer loop
      vertex -0.896149 -2.75806 8
      vertex -1.875 -3.24759 8
      vertex 0 -3.75 8
    endloop
  endfacet
  facet normal 0 0 1
    outer loop
      vertex -2.34615 -1.70458 8
      vertex -1.875 -3.24759 8
      vertex -0.896149 -2.75806 8
    endloop
  endfacet
  facet normal 0 0 1
    outer loop
      vertex -3.24759 -1.875 8
      vertex -2.34615 -1.70458 8
      vertex -2.9 0 8
    endloop
  endfacet
  facet normal 0 0 1
    outer loop
      vertex -2.34615 -1.70458 8
      vertex -3.24759 -1.875 8
      vertex -1.875 -3.24759 8
    endloop
  endfacet
  facet normal 0 0 1
    outer loop
      vertex -3.75 0 8
      vertex -2.9 0 8
      vertex -3.24759 1.875 8
    endloop
  endfacet
  facet normal 0 0 1
    outer loop
      vertex -2.9 0 8
      vertex -3.75 0 8
      vertex -3.24759 -1.875 8
    endloop
  endfacet
  facet normal 0.965926 -0.258819 0
    outer loop
      vertex 3.24759 -1.875 8
      vertex 3.75 0 -0.5
      vertex 3.75 0 8
    endloop
  endfacet
  facet normal 0.965926 -0.258819 0
    outer loop
      vertex 3.75 0 -0.5
      vertex 3.24759 -1.875 8
      vertex 3.24759 -1.875 -0.5
    endloop
  endfacet
  facet normal 0.965926 -0.258819 0
    outer loop
      vertex 3.24759 -1.875 -2.5
      vertex 3.75 0 -4
      vertex 3.75 0 -2.5
    endloop
  endfacet
  facet normal 0.965926 -0.258819 0
    outer loop
      vertex 3.75 0 -4
      vertex 3.24759 -1.875 -2.5
      vertex 3.24759 -1.875 -4
    endloop
  endfacet
  facet normal -0.258819 -0.965926 0
    outer loop
      vertex -1.875 -3.24759 -0.5
      vertex 0 -3.75 8
      vertex -1.875 -3.24759 8
    endloop
  endfacet
  facet normal -0.258819 -0.965926 -0
    outer loop
      vertex 0 -3.75 8
      vertex -1.875 -3.24759 -0.5
      vertex 0 -3.75 -0.5
    endloop
  endfacet
  facet normal -0.258819 -0.965926 0
    outer loop
      vertex -1.875 -3.24759 -4
      vertex 0 -3.75 -2.5
      vertex -1.875 -3.24759 -2.5
    endloop
  endfacet
  facet normal -0.258819 -0.965926 -0
    outer loop
      vertex 0 -3.75 -2.5
      vertex -1.875 -3.24759 -4
      vertex 0 -3.75 -4
    endloop
  endfacet
  facet normal -0.965926 -0.258819 0
    outer loop
      vertex -3.24759 -1.875 -4
      vertex -3.75 0 -2.5
      vertex -3.75 0 -4
    endloop
  endfacet
  facet normal -0.965926 -0.258819 0
    outer loop
      vertex -3.75 0 -2.5
      vertex -3.24759 -1.875 -4
      vertex -3.24759 -1.875 -2.5
    endloop
  endfacet
  facet normal -0.965926 -0.258819 0
    outer loop
      vertex -3.24759 -1.875 -0.5
      vertex -3.75 0 8
      vertex -3.75 0 -0.5
    endloop
  endfacet
  facet normal -0.965926 -0.258819 0
    outer loop
      vertex -3.75 0 8
      vertex -3.24759 -1.875 -0.5
      vertex -3.24759 -1.875 8
    endloop
  endfacet
  facet normal 0.707107 -0.707107 0
    outer loop
      vertex 1.875 -3.24759 -2.5
      vertex 3.24759 -1.875 -4
      vertex 3.24759 -1.875 -2.5
    endloop
  endfacet
  facet normal 0.707107 -0.707107 0
    outer loop
      vertex 3.24759 -1.875 -4
      vertex 1.875 -3.24759 -2.5
      vertex 1.875 -3.24759 -4
    endloop
  endfacet
  facet normal 0.707107 -0.707107 0
    outer loop
      vertex 1.875 -3.24759 8
      vertex 3.24759 -1.875 -0.5
      vertex 3.24759 -1.875 8
    endloop
  endfacet
  facet normal 0.707107 -0.707107 0
    outer loop
      vertex 3.24759 -1.875 -0.5
      vertex 1.875 -3.24759 8
      vertex 1.875 -3.24759 -0.5
    endloop
  endfacet
  facet normal 0.258819 -0.965926 0
    outer loop
      vertex 0 -3.75 -0.5
      vertex 1.875 -3.24759 8
      vertex 0 -3.75 8
    endloop
  endfacet
  facet normal 0.258819 -0.965926 0
    outer loop
      vertex 1.875 -3.24759 8
      vertex 0 -3.75 -0.5
      vertex 1.875 -3.24759 -0.5
    endloop
  endfacet
  facet normal 0.258819 -0.965926 0
    outer loop
      vertex 0 -3.75 -4
      vertex 1.875 -3.24759 -2.5
      vertex 0 -3.75 -2.5
    endloop
  endfacet
  facet normal 0.258819 -0.965926 0
    outer loop
      vertex 1.875 -3.24759 -2.5
      vertex 0 -3.75 -4
      vertex 1.875 -3.24759 -4
    endloop
  endfacet
  facet normal -0.707107 -0.707107 0
    outer loop
      vertex -1.875 -3.24759 -4
      vertex -3.24759 -1.875 -2.5
      vertex -3.24759 -1.875 -4
    endloop
  endfacet
  facet normal -0.707107 -0.707107 0
    outer loop
      vertex -3.24759 -1.875 -2.5
      vertex -1.875 -3.24759 -4
      vertex -1.875 -3.24759 -2.5
    endloop
  endfacet
  facet normal -0.707107 -0.707107 0
    outer loop
      vertex -1.875 -3.24759 -0.5
      vertex -3.24759 -1.875 8
      vertex -3.24759 -1.875 -0.5
    endloop
  endfacet
  facet normal -0.707107 -0.707107 0
    outer loop
      vertex -3.24759 -1.875 8
      vertex -1.875 -3.24759 -0.5
      vertex -1.875 -3.24759 8
    endloop
  endfacet
endsolid OpenSCAD_Model
